<?xml version="1.0" encoding="UTF-8" standalone="no"?>
<svg
   xmlns:dc="http://purl.org/dc/elements/1.1/"
   xmlns:cc="http://creativecommons.org/ns#"
   xmlns:rdf="http://www.w3.org/1999/02/22-rdf-syntax-ns#"
   xmlns:svg="http://www.w3.org/2000/svg"
   xmlns="http://www.w3.org/2000/svg"
   xmlns:xlink="http://www.w3.org/1999/xlink"
   xmlns:sodipodi="http://sodipodi.sourceforge.net/DTD/sodipodi-0.dtd"
   xmlns:inkscape="http://www.inkscape.org/namespaces/inkscape"
   width="210mm"
   height="297mm"
   viewBox="0 0 210 297"
   version="1.1"
   id="svg8"
   inkscape:version="1.0 (4035a4fb49, 2020-05-01)"
   sodipodi:docname="Projet 3.svg">
  <defs
     id="defs2" />
  <sodipodi:namedview
     id="base"
     pagecolor="#ffffff"
     bordercolor="#666666"
     borderopacity="1.0"
     inkscape:pageopacity="0.0"
     inkscape:pageshadow="2"
     inkscape:zoom="0.35"
     inkscape:cx="400"
     inkscape:cy="560"
     inkscape:document-units="mm"
     inkscape:current-layer="layer1"
     inkscape:document-rotation="0"
     showgrid="false"
     inkscape:window-width="1577"
     inkscape:window-height="1040"
     inkscape:window-x="26"
     inkscape:window-y="0"
     inkscape:window-maximized="0" />
  <metadata
     id="metadata5">
    <rdf:RDF>
      <cc:Work
         rdf:about="">
        <dc:format>image/svg+xml</dc:format>
        <dc:type
           rdf:resource="http://purl.org/dc/dcmitype/StillImage" />
        <dc:title />
      </cc:Work>
    </rdf:RDF>
  </metadata>
  <g
     inkscape:label="Calque 1"
     inkscape:groupmode="layer"
     id="layer1">
    <path
       d="m 555.25781,362.94727 a 300,275.7143 0 0 0 -105.26562,20.16992 c 4.93564,9.03303 10.45094,17.71424 16.82422,25.73633 6.78013,8.53419 14.25597,16.22846 22.54492,21.92382 22.56021,-22.02868 44.44651,-44.72252 65.89648,-67.83007 z m 37.65235,1.29687 c -9.57074,10.50297 -19.22811,20.92569 -28.97266,31.26367 1.06666,1.58764 1.94567,3.49719 2.56641,5.78125 8.39614,30.89447 8.60609,14.58744 -5.13672,48.65625 -10.19702,5.7106 -19.01333,15.54279 -30.5918,17.13281 -12.61296,1.73213 -24.22333,0.52979 -34.92773,-2.88085 -3.31681,3.15792 -6.64274,6.3062 -9.99024,9.43359 -7.97537,7.45096 -41.95455,39.64067 -72.83398,60.58789 -2.58159,8.38368 -7.59381,21.23283 -15.49219,19.48633 -3.50618,-0.7753 -6.38017,-2.83524 -9.02344,-5.36524 -4.66355,2.057 -8.99902,3.49385 -12.83398,4.08008 -10.98304,1.67891 -21.15474,-6.79942 -31.73242,-10.19922 -17.65545,-42.85318 -19.50268,-44.0078 -24.07422,-65.3457 a 300,275.7143 0 0 0 -22.08399,32.58594 c 3.36619,34.25062 2.58977,69.09763 1.85742,103.25195 -0.42371,19.76349 -1.07242,39.52247 -1.60937,59.2832 -4.18721,-0.86843 -7.51371,-1.09759 -10.13086,-0.79882 0.38598,3.42515 -0.85881,8.52014 -2.97656,14.51171 57.82514,-8.50577 117.25328,-17.79277 179.82617,-28.29882 46.82769,-7.86244 93.7538,-15.51102 140.51367,-23.96094 7.33888,-97.81058 17.75926,-168.77559 -6.41406,-268.59961 a 300,275.7143 0 0 0 -5.93945,-0.60547 z M 287.90039,671.19727 c -0.63482,-5.63341 -5.66101,-6.77014 -18.43164,0.0215 0.90211,-33.15523 2.58179,-66.53368 2.43164,-99.83008 a 300,275.7143 0 0 0 -7.28125,37.33789 c 1.74519,14.89798 2.48025,29.94231 2.51172,44.97656 0.0172,8.21171 0.0279,17.49524 -0.7793,26.82618 a 300,275.7143 0 0 0 1.40821,7.68554 c 4.27326,-0.62064 8.5479,-1.24208 12.83789,-1.87109 -1.9366,-8.29422 -0.6963,-14.23334 7.30273,-15.14648 z M 628.41406,369.52148 c 8.95858,45.08374 12.32159,91.51683 13.68164,136.74414 1.22281,40.66325 -4.07841,81.21237 -7.66601,121.79102 46.89438,-8.87242 93.56601,-18.76745 139.73828,-30.75391 14.41968,-3.74339 49.1285,-17.22589 76.73437,-35.78711 A 300,275.7143 0 0 0 628.41406,369.52148 Z m -204.7207,24.79883 a 300,275.7143 0 0 0 -3.01758,1.47071 c 0.20582,10.44678 0.25931,20.68383 0.16016,30.89062 6.23643,4.84892 6.11495,13.13831 -0.35156,18.80664 -0.43066,15.95049 -1.19631,32.14892 -2.2793,49.35938 16.40848,-13.02582 32.05872,-27.04468 47.36523,-41.33594 1.19626,-1.11691 2.37619,-2.25014 3.56836,-3.3711 -10.1073,-7.56069 -19.19865,-17.06037 -27.38281,-27.56445 -6.86968,-8.81699 -12.77672,-18.35065 -18.0625,-28.25586 z m -31.37109,17.41797 a 300,275.7143 0 0 0 -19.11719,13.20313 c 6.08702,-0.40145 12.48213,-0.81856 19.09961,-1.26172 0.0281,-3.96974 0.0364,-7.94627 0.0176,-11.94141 z m 152.70117,3.57031 c -8.26589,8.54252 -16.59434,17.0235 -25.02735,25.40235 4.33206,-0.075 8.8308,-0.72781 13.51368,-2.07422 5.37169,-1.54447 7.70211,-8.10298 11.55273,-12.1543 -0.19107,-8.5201 1.15114,-9.99964 -0.0391,-11.17383 z M 391.7168,452.30078 c -17.33851,1.16753 -32.3553,2.0369 -46.76758,3.58789 11.9216,55.62784 2.82228,4.7754 12.53711,61.17578 9.53358,17.27144 6.80757,18.00214 29.75976,0.87696 0.90882,-8.08133 1.89256,-16.15611 2.41016,-24.26953 0.91512,-14.34521 1.60741,-27.98175 2.06055,-41.3711 z m 466.88281,139.99219 c -20.01406,13.33977 -44.00065,22.84152 -71.33789,30.4043 -51.32349,14.19849 -103.42225,25.27978 -155.81641,35.04101 -8.21439,47.73442 -16.76585,112.29278 -35.3457,158.7168 -3.63061,9.07154 -7.67891,20.02157 -16.49609,24.23242 -27.31325,13.04409 -34.2283,-8.81112 -50.95313,-20.43555 -8.0646,-5.60523 -17.39581,-9.12069 -26.09375,-13.68164 -83.67173,-29.02952 -120.80794,-41.61398 -202.375,-71.59961 2.68298,8.85199 2.61046,15.64349 -3.84375,17.67578 -2.02828,0.63867 -4.02288,1.04257 -5.98242,1.23438 a 300,275.7143 0 0 0 272.50195,160.4043 300,275.7143 0 0 0 300,-275.71289 300,275.7143 0 0 0 -4.25781,-46.2793 z m -256.94336,70.85351 c -43.75242,7.77139 -87.64531,14.86778 -131.40625,22.30079 -52.51184,8.9194 -103.93988,17.07094 -154.75781,24.67968 70.19051,25.65977 128.40303,45.92855 200.75781,71.36524 3.28528,1.8514 41.35718,19.32946 45.4707,31.79101 1.24343,3.76683 -8.52848,12.93516 -5.27343,10.66797 19.44502,-13.54378 27.67592,-65.93285 29.64453,-74.78711 6.32409,-28.44399 10.65965,-57.28833 15.56445,-86.01758 z"
       transform="scale(0.26458333)"
       style="fill:#ff0000;fill-rule:evenodd;stroke-width:0.999999"
       id="path10" />
    <path
       d="m 419.73828,308.58789 c 4.69949,15.03935 9.76229,29.48015 15.28906,42.74805 8.42336,20.2216 18.16255,40.36578 31.78907,57.51758 6.78013,8.53419 14.25597,16.22846 22.54492,21.92382 29.64178,-28.93681 58.12168,-59.01805 85.9707,-89.6875 A 210,92.857131 0 0 0 419.73828,308.58789 Z m -32.25976,0.82813 a 210,92.857131 0 0 0 -180.56836,82.12304 c 0.59492,0.68908 1.18937,1.38095 1.79296,2.04492 0.58517,0.28131 1.15031,0.63295 1.6875,1.08399 0.84268,0.70744 1.36022,1.44938 1.5879,2.2207 0.47235,0.42835 0.94916,0.84449 1.43554,1.23242 8.47068,6.7561 2.13592,8.98845 -7.31054,8.95313 a 210,92.857131 0 0 0 36.17773,46.71094 c 4.04942,-1.63932 8.11005,-3.25058 12.19141,-4.80664 0.61713,-0.23529 1.21311,-0.45333 1.82422,-0.6836 -2.85054,-7.81042 -6.84932,-15.17413 -10.2129,-22.78515 -11.43307,-25.87057 13.43775,-39.70137 24.97461,-13.87696 3.99836,8.95004 8.80454,17.58314 11.9961,26.85157 0.0731,0.2124 0.14033,0.4261 0.21289,0.63867 9.7183,-2.91076 18.74793,-5.13152 27.49219,-6.90625 -0.41883,-2.03109 -0.6798,-3.35884 -1.13477,-5.54688 -3.52778,-16.96565 -6.37349,-34.06471 -9.56055,-51.09765 -5.20204,-27.80178 22.89274,-33.05539 28.08594,-5.25196 3.12246,16.71708 5.92541,33.49812 9.36719,50.15235 0.56319,2.7252 1.00627,4.83097 1.52539,7.33007 16.4154,-1.86698 33.41128,-2.80816 53.26172,-4.1289 0.14688,-20.79163 -0.33302,-41.76249 -1.54297,-64.66406 -0.98274,-18.6008 -2.07992,-34.72121 -3.2832,-49.59375 z m 209.99609,49.79687 c -11.06766,12.20202 -22.24875,24.29771 -33.54492,36.2832 1.07024,1.58993 1.95195,3.50328 2.57422,5.79297 8.39614,30.89447 8.60609,14.58744 -5.13672,48.65625 -10.19702,5.7106 -19.01333,15.54279 -30.5918,17.13281 -12.61296,1.73213 -24.22333,0.52979 -34.92773,-2.88085 -3.31661,3.15785 -6.64288,6.30632 -9.99024,9.43359 -3.10962,2.90515 -10.24614,9.62365 -19.53711,17.91797 A 210,92.857131 0 0 0 611.125,435.43555 c -2.47377,-23.95685 -6.77571,-48.99864 -13.65039,-76.22266 z m -176.97852,28.9375 c 0.35004,13.12598 0.46303,25.85082 0.33985,38.53125 6.23643,4.84892 6.11495,13.13831 -0.35156,18.80664 -0.42581,15.77098 -1.18412,31.79463 -2.24805,48.78906 a 210,92.857131 0 0 0 0.6875,-0.004 c 16.14641,-12.86377 31.56403,-26.67966 46.64648,-40.76172 1.19663,-1.11726 2.38556,-2.24201 3.57813,-3.36328 -10.11131,-7.56192 -19.20572,-17.06472 -27.39258,-27.57227 -8.28606,-10.63487 -15.18028,-22.3089 -21.25977,-34.42578 z m 124.53516,27.16602 c -8.26677,8.54452 -16.61087,17.01382 -25.04492,25.39453 4.33506,-0.0742 8.83703,-0.72679 13.52344,-2.07422 5.37169,-1.54447 7.70211,-8.10298 11.55273,-12.1543 -0.19066,-8.50172 1.14534,-9.993 -0.0312,-11.16601 z M 391.7168,452.29883 c -17.34004,1.16362 -32.35768,2.02261 -46.77149,3.57031 8.48656,39.60099 6.36539,25.48303 7.89649,34.15625 a 210,92.857131 0 0 0 36.82031,3.54297 c 0.91185,-14.30731 1.60266,-27.91237 2.05469,-41.26953 z m -75.26563,7.8789 c -8.12594,1.62758 -16.49374,3.65951 -25.4707,6.32032 0.77923,3.43177 1.5018,6.87386 2.16211,10.32812 a 210,92.857131 0 0 0 28.45117,7.61133 c -1.39839,-5.71386 -2.98701,-13.52021 -5.14258,-24.25977 z"
       transform="scale(0.26458333)"
       style="fill:#ff0000;fill-rule:evenodd;stroke-width:0.999999"
       id="path12" />
    <path
       d="m 322.85742,194.28516 v 163.41601 c 2.36143,2.99008 4.27288,7.15777 5.29297,12.61914 3.12246,16.71708 5.92541,33.49812 9.36719,50.15235 0.56273,2.72296 1.00471,4.82698 1.52344,7.32422 16.41414,-1.86612 33.4117,-2.80535 53.26367,-4.125 0.14683,-20.79099 -0.33306,-41.76126 -1.54297,-64.66211 -1.2657,-23.9566 -2.7183,-43.93545 -4.35742,-62.27735 -9.78431,-34.38031 -17.96842,-70.37993 -25.5586,-102.44726 z m 80.76172,0 c 4.35121,36.26167 7.98637,64.06479 11.00195,97.17578 6.09851,21.18437 12.81045,41.64007 20.40625,59.875 8.42336,20.2216 18.16255,40.36578 31.78907,57.51758 6.78013,8.53419 14.25597,16.22846 22.54492,21.92382 34.25355,-33.43615 66.95216,-68.40242 98.92187,-104.03711 -10.30373,-32.44226 -24.11357,-63.98668 -43.94336,-91.23046 -10.87766,-14.94464 -23.50248,-28.6556 -37.27539,-41.22461 z m 143.2168,0 c 5.69151,6.28847 11.10035,12.81135 16.16406,19.58789 20.50555,27.44168 35.69711,57.25957 46.98828,88.46679 22.0415,-24.97118 43.82622,-50.16552 65.625,-75.29882 5.79134,-6.67723 11.7434,-9.29613 16.625,-9.08985 10.73952,0.45383 16.29944,14.58607 3.57813,29.29297 -25.10699,29.02573 -50.22329,58.11088 -75.75586,86.82422 8.99618,32.64181 14.41282,66.39064 17.70117,100.2168 h 190.81055 v -240 z m 50.63867,164.92773 c -11.06857,12.20303 -22.23842,24.31218 -33.53516,36.29883 1.06557,1.58693 1.94419,3.49501 2.56446,5.77734 6.62673,24.38376 8.12017,19.44458 1.71289,32.9961 h 42.79101 c -2.49202,-23.60766 -6.76859,-48.28424 -13.5332,-75.07227 z m -176.97852,28.9375 c 0.35017,13.12987 0.46321,25.85879 0.33985,38.54297 2.64447,2.06506 4.15528,4.74699 4.50586,7.5918 h 26.35742 c -3.45298,-3.71887 -6.76894,-7.63474 -9.94336,-11.70899 -8.28606,-10.63487 -15.18028,-22.3089 -21.25977,-34.42578 z m 124.53907,27.16797 c -6.15891,6.36563 -12.35883,12.69071 -18.60938,18.9668 h 12.80078 c 1.99668,-2.5164 3.68551,-5.54022 5.83594,-7.80274 -0.1905,-8.49476 1.1442,-9.99148 -0.0273,-11.16406 z"
       transform="scale(0.26458333)"
       style="fill:#0000ff;fill-rule:evenodd;stroke-width:0.999999"
       id="rect14" />
    <use
       id="use16"
       inkscape:spray-origin="#rect14"
       xlink:href="#rect14"
       x="0"
       y="0"
       width="100%"
       height="100%"
       transform="translate(-15.660928,34.174784)" />
    <use
       id="use18"
       inkscape:spray-origin="#rect14"
       xlink:href="#rect14"
       x="0"
       y="0"
       width="100%"
       height="100%"
       transform="translate(-23.547948,14.028919)" />
    <use
       id="use20"
       inkscape:spray-origin="#rect14"
       xlink:href="#rect14"
       x="0"
       y="0"
       width="100%"
       height="100%"
       transform="translate(-70.589663,67.19444)" />
    <use
       id="use22"
       inkscape:spray-origin="#rect14"
       xlink:href="#rect14"
       x="0"
       y="0"
       width="100%"
       height="100%"
       transform="translate(-86.570915,86.71869)" />
    <use
       id="use24"
       inkscape:spray-origin="#rect14"
       xlink:href="#rect14"
       x="0"
       y="0"
       width="100%"
       height="100%"
       transform="translate(-108.88145,132.14749)" />
    <use
       id="use26"
       inkscape:spray-origin="#rect14"
       xlink:href="#rect14"
       x="0"
       y="0"
       width="100%"
       height="100%"
       transform="translate(-112.43532,154.04763)" />
    <use
       id="use28"
       inkscape:spray-origin="#rect14"
       xlink:href="#rect14"
       x="0"
       y="0"
       width="100%"
       height="100%"
       transform="translate(-81.220207,190.42875)" />
    <use
       id="use30"
       inkscape:spray-origin="#rect14"
       xlink:href="#rect14"
       x="0"
       y="0"
       width="100%"
       height="100%"
       transform="translate(-76.29666,168.67678)" />
    <use
       id="use32"
       inkscape:spray-origin="#rect14"
       xlink:href="#rect14"
       x="0"
       y="0"
       width="100%"
       height="100%"
       transform="translate(-69.063354,106.64526)" />
    <use
       id="use34"
       inkscape:spray-origin="#rect14"
       xlink:href="#rect14"
       x="0"
       y="0"
       width="100%"
       height="100%"
       transform="translate(-43.686848,81.760262)" />
    <use
       id="use36"
       inkscape:spray-origin="#rect14"
       xlink:href="#rect14"
       x="0"
       y="0"
       width="100%"
       height="100%"
       transform="translate(-99.975185,65.910915)" />
    <use
       id="use38"
       inkscape:spray-origin="#rect14"
       xlink:href="#rect14"
       x="0"
       y="0"
       width="100%"
       height="100%"
       transform="translate(-126.14965,95.60136)" />
    <use
       id="use40"
       inkscape:spray-origin="#rect14"
       xlink:href="#rect14"
       x="0"
       y="0"
       width="100%"
       height="100%"
       transform="translate(-100.98379,118.80902)" />
    <use
       id="use42"
       inkscape:spray-origin="#rect14"
       xlink:href="#rect14"
       x="0"
       y="0"
       width="100%"
       height="100%"
       transform="translate(-91.536541,145.96173)" />
    <use
       id="use44"
       inkscape:spray-origin="#rect14"
       xlink:href="#rect14"
       x="0"
       y="0"
       width="100%"
       height="100%"
       transform="translate(-100.9638,179.67829)" />
    <use
       id="use46"
       inkscape:spray-origin="#rect14"
       xlink:href="#rect14"
       x="0"
       y="0"
       width="100%"
       height="100%"
       transform="translate(-95.199998,177.6996)" />
    <use
       id="use48"
       inkscape:spray-origin="#rect14"
       xlink:href="#rect14"
       x="0"
       y="0"
       width="100%"
       height="100%"
       transform="translate(-113.01124,175.48272)" />
    <use
       id="use50"
       inkscape:spray-origin="#rect14"
       xlink:href="#rect14"
       x="0"
       y="0"
       width="100%"
       height="100%"
       transform="translate(-83.767147,87.275115)" />
    <use
       id="use52"
       inkscape:spray-origin="#rect14"
       xlink:href="#rect14"
       x="0"
       y="0"
       width="100%"
       height="100%"
       transform="translate(-178.02958,25.760648)" />
    <path
       d="m -32.169922,-21.611328 -36.873047,39.039062 c 16.06244,-1.546674 34.251226,-2.139223 53.171875,-2.11914 21.6838808,0.02302 44.241491,0.851985 65.654297,1.93164 z m 26.1132814,65.578125 c -24.8266024,0.0061 -50.9481904,1.330475 -83.0273434,4.916015 -3.281077,0.366732 -6.754149,0.52323 -10.273438,0.642579 l -49.900388,52.833989 c 0.80188,3.86867 1.86057,7.6126 3.1289,11.06835 C -116.29679,194.70924 -2.6837022,329.8092 40,385.92188 c 31.877206,40.53254 62.10387,78.06519 91.39844,115.49414 3.72374,-11.13542 7.75048,-23.1701 12.50976,-37.85547 -35.94703,-10.55106 -5.52354,-25.61721 25.34961,-39.7168 1.87528,-22.76806 4.27309,-46.27254 18.29883,-46.34766 8.92639,-0.0478 14.69775,8.99474 21.14648,16.08789 0.58517,0.28131 1.15031,0.63295 1.6875,1.08399 0.84268,0.70744 1.36022,1.44938 1.5879,2.2207 0.47235,0.42835 0.94916,0.84449 1.43554,1.23242 9.2463,7.37472 0.86383,9.36718 -9.96484,8.89453 -8.23652,5.16373 -21.24085,10.91369 -34.19141,16.82813 -2.27278,27.59424 -3.77869,54.10105 -24.27734,36.41992 -0.37286,1.15559 -0.70632,2.1677 -1.07227,3.29688 6.85714,2.01268 16.10786,3.86085 28.25391,5.50586 -2.30127,7.07679 -4.71073,14.12232 -7.13867,21.16211 29.02812,-15.43321 58.77968,-29.55687 89.44922,-41.25 0.61713,-0.23529 1.21311,-0.45333 1.82422,-0.6836 -2.85054,-7.81042 -6.84932,-15.17413 -10.2129,-22.78515 -11.43307,-25.87057 13.43775,-39.70137 24.97461,-13.87696 3.99836,8.95004 8.80454,17.58314 11.9961,26.85157 0.0734,0.21297 0.14014,0.42748 0.21289,0.64062 9.71836,-2.91079 18.74792,-5.13136 27.49219,-6.90625 -0.41896,-2.03172 -0.67964,-3.36005 -1.13477,-5.54883 -3.52778,-16.96565 -6.37349,-34.06471 -9.56055,-51.09765 -5.20204,-27.80178 22.89274,-33.05539 28.08594,-5.25196 3.12246,16.71708 5.92541,33.49812 9.36719,50.15235 0.56333,2.72589 1.00615,4.83234 1.52539,7.33203 16.41535,-1.86739 33.41124,-2.80977 53.26172,-4.13086 0.14688,-20.79163 -0.33302,-41.76249 -1.54297,-64.66406 -1.26722,-23.98532 -2.71622,-43.95818 -4.35352,-62.26563 -11.28642,-39.65653 -20.46639,-81.66086 -29.03515,-117.04492 -1.67376,-6.91164 -1.13392,-12.3886 0.69336,-16.3086 L 118.875,49.996094 C 68.584791,47.163258 32.747476,43.957243 -6.0566406,43.966797 Z M -171.50781,125.91602 -418.06641,386.9668 -219.30859,750.98047 C -108.98458,737.34806 -7.4912551,725.16552 93.263672,712.09375 91.296291,694.0047 93.503866,674.78848 95.896484,657.95117 75.798033,650.57071 45.885013,639.16213 19.025391,624.55273 7.0941144,635.97282 9.6213586,640.92854 11.208984,666.08984 L 21.070312,656.75 c 20.537099,-19.44809 16.091618,43.17568 -7.498046,27.57031 -10.2842288,-6.80337 -20.5673353,-13.60682 -30.851563,-20.41015 2.00635,-12.96798 -0.684231,-27.62249 6.017578,-38.9043 2.6036499,-4.38298 5.672903,-8.79301 9.1191409,-13.20313 -19.3656039,-13.05172 -34.5222839,-28.00819 -38.8320309,-44.47265 -8.265264,-31.57565 5.304649,-65.0642 7.957031,-97.5957 C -21.756839,447.1452 -10.497067,424.55597 0.76367188,401.9668 3.0299615,397.42059 5.7309821,394.13962 8.5566406,391.92969 -39.237882,330.51965 -143.53462,203.23102 -170.90234,127.66602 c -0.20738,-0.57258 -0.40258,-1.1682 -0.60547,-1.75 z m 573.94726,58.51171 c 4.88277,41.31562 8.89524,71.02462 12.17578,107.01563 6.09987,21.19072 12.81419,41.65255 20.41211,59.89258 5.42569,13.02522 11.40461,26.01334 18.60938,38.19531 l 22.02344,-170.39063 z m 18.05664,203.72266 c 0.35004,13.12598 0.46303,25.85082 0.33985,38.53125 6.23643,4.84892 6.11495,13.13831 -0.35156,18.80664 -0.43057,15.94742 -1.19664,32.14284 -2.2793,49.34961 8.33311,-6.61868 16.47544,-13.48739 24.47265,-20.52344 l 5.65625,-43.75781 c -2.25468,-2.58226 -4.44787,-5.24637 -6.57812,-7.98047 -8.28606,-10.63487 -15.18028,-22.3089 -21.25977,-34.42578 z M 26.328125,414.71875 c -0.04746,0.0916 -0.08429,0.17955 -0.132813,0.27148 -10.298259,19.51268 -20.5962655,39.02443 -30.8945308,58.53711 -5.035973,24.87062 -19.7309122,49.66074 -15.1074222,74.61133 2.88688,15.579 17.7353662,29.97059 36.923829,42.49805 C 44.608082,563.93456 81.738183,538.82555 110.58008,521.16406 83.131614,486.0411 55.040737,451.07295 26.328125,414.71875 Z M 391.7168,452.29883 c -17.34004,1.16362 -32.35768,2.02261 -46.77149,3.57031 11.92845,55.66193 2.82496,4.78778 12.54102,61.19531 9.53358,17.27144 6.80757,18.00214 29.75976,0.87696 0.90882,-8.08133 1.89256,-16.15611 2.41016,-24.26953 0.91517,-14.3459 1.60741,-27.98308 2.06055,-41.37305 z m -75.26563,7.8789 c -8.12594,1.62758 -16.49374,3.65951 -25.4707,6.32032 10.83374,47.66742 9.70169,97.64076 8.66015,146.21484 -0.42371,19.76349 -1.07242,39.52247 -1.60937,59.2832 -4.18721,-0.86843 -7.51371,-1.09759 -10.13086,-0.79882 0.38598,3.42515 -0.85881,8.52014 -2.97656,14.51171 43.25213,-6.36216 87.39893,-13.15951 133.09179,-20.58007 l 19.25,-148.9336 c -7.94785,6.34462 -16.19748,12.55395 -24.23828,18.00977 -2.58035,8.38335 -7.5935,21.24743 -15.49609,19.5 -3.50395,-0.77481 -6.37569,-2.83354 -9.01758,-5.36133 -4.66719,2.05977 -9.00193,3.48949 -12.83984,4.07617 -10.98304,1.67891 -21.15474,-6.79942 -31.73242,-10.19922 -21.22379,-51.51424 -19.75718,-43.51502 -27.49024,-82.04297 z m -28.55078,211.01954 c -0.63482,-5.63341 -5.66101,-6.77014 -18.43164,0.0215 1.33894,-49.21009 4.40939,-98.91415 0.63086,-148.10742 -1.37002,-17.83645 -2.836,-32.37656 -6.06641,-47.43555 -0.92957,0.35306 -1.8466,0.69501 -2.79101,1.06055 -37.39551,14.47391 -73.33135,32.74994 -108.22852,52.55078 29.04161,37.77595 57.32019,76.16768 85.51758,118.12109 -0.43368,-30.07323 -4.0395,-60.14563 -14.35937,-88.56445 -9.65424,-26.58565 15.97738,-38.44375 25.9414,-11.97266 12.85981,34.16421 16.94161,70.53594 17.01758,106.83203 0.0212,10.11142 0.0451,21.84481 -1.47852,33.29493 0.30757,0.46224 0.60896,0.9273 0.91407,1.39062 4.66885,-0.6775 9.34249,-1.35744 14.03125,-2.04492 -1.9366,-8.29422 -0.6963,-14.23334 7.30273,-15.14648 z M 115.43945,551.75586 c -21.761037,13.83019 -42.82331,28.78743 -62.769528,45.06055 -3.75139,3.06057 -7.082972,5.74766 -10.22461,8.27343 20.170691,10.20597 41.429046,18.51765 57.503907,24.35352 4.868931,-34.09035 9.486611,-56.21022 15.490231,-77.6875 z m 26.75586,10.39844 c -5.44347,21.72279 -10.739,49.47609 -14.79297,77.08203 31.67998,12.79379 63.63775,24.88216 95.66797,36.7832 -0.55086,-1.09878 -1.03163,-1.9805 -1.43359,-2.58789 -25.76451,-38.93219 -52.26638,-75.48603 -79.44141,-111.27734 z m -18.61328,106.32226 c -1.45569,12.82776 -2.5366,25.08754 -3.11133,36.06836 -0.0682,1.30402 -0.2167,2.6644 -0.39453,4.04883 26.50448,-3.48862 53.04453,-7.05598 79.76758,-10.75391 -25.51804,-9.53876 -50.97449,-19.23628 -76.26172,-29.36328 z m 290.60547,26.26758 c -33.2277,5.38819 -66.09016,10.50185 -98.68945,15.38281 32.48658,11.8745 62.46221,22.61601 92.40625,33.22852 z m -165.29883,31.07227 c -9.05756,9.52504 -20.68601,16.70105 -30.59375,25.44921 -18.00476,4.85186 -76.74972,28.51541 -100.48047,9.90626 -7.65408,-6.00222 -13.15625,-13.23741 -17.03906,-21.24415 -100.26648649,13.01991 -200.94896,25.14875 -305.35742,38.02539 l 55.84765,102.28126 552.35352,-103.72071 0.53516,-4.13476 c -31.1582,-10.93459 -61.58251,-21.82477 -103.97266,-37.40821 2.68298,8.85199 2.61046,15.64349 -3.84375,17.67578 -8.199,2.5817 -15.84258,1.34444 -22.88086,-2.35351 -1.74933,1.12524 -3.65974,1.8097 -5.6875,1.88281 -5.14276,0.18542 -6.31126,-3.68387 -5.2168,-9.85937 -4.95367,-4.65477 -9.50917,-10.37144 -13.66406,-16.5 z m -43.99805,0.20117 c -25.92533,3.57935 -51.77789,7.04466 -77.62109,10.44726 19.54904,9.23137 63.61281,-5.36076 73.00781,-7.37304 1.4925,-1.07353 3.04464,-2.08302 4.61328,-3.07422 z"
       transform="scale(0.26458333)"
       inkscape:transform-center-y="-5.0104646"
       inkscape:transform-center-x="7.2138452"
       style="fill:#ffff00;fill-rule:evenodd;stroke-width:0.999999"
       id="path54" />
    <path
       d="m 178.59961,362.73242 -48.76172,84.1875 c 5.85076,-7.38546 22.55485,-15.37399 39.41992,-23.07617 1.87528,-22.76806 4.27309,-46.27254 18.29883,-46.34766 8.92639,-0.0478 14.69773,8.99474 21.14648,16.08789 0.58517,0.28131 1.15029,0.63295 1.6875,1.08399 0.84268,0.70744 1.36022,1.44938 1.5879,2.2207 0.47235,0.42835 0.94916,0.84449 1.43554,1.23242 9.2463,7.37472 0.86383,9.36718 -9.96484,8.89453 -8.23652,5.16373 -21.24085,10.91369 -34.19141,16.82813 -2.27278,27.59424 -3.77869,54.10105 -24.27734,36.41992 -0.37286,1.15559 -0.70632,2.1677 -1.07227,3.29688 6.85714,2.01268 16.10786,3.86085 28.25391,5.50586 -2.30132,7.07694 -4.71063,14.12211 -7.13867,21.16211 29.02812,-15.43321 58.77968,-29.55687 89.44922,-41.25 0.61713,-0.23529 1.21311,-0.45333 1.82422,-0.6836 -2.85054,-7.81042 -6.84932,-15.17413 -10.2129,-22.78515 -11.43307,-25.87057 13.43775,-39.70137 24.97461,-13.87696 3.99836,8.95004 8.80454,17.58314 11.9961,26.85157 0.0731,0.21234 0.14036,0.42617 0.21289,0.63867 9.71193,-2.90885 18.74673,-5.14393 27.48828,-6.91993 -0.41787,-2.02636 -0.67703,-3.35064 -1.13086,-5.5332 -2.58321,-12.42308 -4.80109,-24.91844 -7.05469,-37.40625 z M 143.9082,463.56055 c -13.41958,-3.93888 -17.58568,-8.50776 -15.93554,-13.41993 l -15.65625,27.0293 c 6.40781,8.10521 12.7726,16.1836 19.08593,24.25 3.6881,-11.03723 7.79427,-23.32114 12.50586,-37.85937 z m 188.86328,-67.83399 c 1.50366,8.26421 3.04624,16.52077 4.7461,24.7461 0.18804,0.90989 0.32671,1.56295 0.50976,2.44726 l -2.76562,-26.66015 z m -16.32226,64.4375 c -8.12146,1.62666 -16.49543,3.67296 -25.4668,6.33203 8.3015,36.53028 9.57526,74.41424 9.2461,111.98633 l 51.55664,-22.86914 -1.10547,-10.66016 c -2.23542,-1.04177 -4.47767,-2.00583 -6.73828,-2.73242 -21.22629,-51.5203 -19.75601,-43.513 -27.49219,-82.05664 z m -52.41602,15.51172 c -0.92957,0.35306 -1.8466,0.69501 -2.79101,1.06055 -37.39551,14.47391 -73.33135,32.74994 -108.22852,52.55078 21.53955,28.01732 42.66479,56.36837 63.63867,86.26562 l 19.0586,-8.45312 c -2.20357,-16.40286 -5.84719,-32.58158 -11.53906,-48.25586 -9.65424,-26.58565 15.97738,-38.44375 25.9414,-11.97266 5.90588,15.68996 9.94402,31.84807 12.60938,48.24805 l 9.07226,-4.02344 c 0.32225,-22.70431 0.0395,-45.39816 -1.69531,-67.98437 -1.37002,-17.83645 -2.836,-32.37656 -6.06641,-47.43555 z"
       transform="scale(0.26458333)"
       inkscape:transform-center-y="1.1492598"
       inkscape:transform-center-x="2.3318443"
       style="fill:#ffff00;fill-rule:evenodd;stroke-width:0.999999"
       id="path56" />
    <path
       d="m 272.69141,108.24805 -210.906254,140.11718 68.087894,243.88282 4.52343,0.18945 c 2.91042,-8.7236 6.02928,-18.13143 9.51172,-28.87695 -35.94703,-10.55106 -5.52354,-25.61721 25.34961,-39.7168 1.87528,-22.76806 4.27309,-46.27254 18.29883,-46.34766 8.92639,-0.0478 14.69775,8.99474 21.14648,16.08789 0.58517,0.28131 1.15031,0.63295 1.6875,1.08399 0.84268,0.70744 1.36022,1.44938 1.5879,2.2207 0.47235,0.42835 0.94916,0.84449 1.43554,1.23242 9.2463,7.37472 0.86383,9.36718 -9.96484,8.89453 -8.23652,5.16373 -21.24085,10.91369 -34.19141,16.82813 -2.27278,27.59424 -3.77869,54.10105 -24.27734,36.41992 -0.37286,1.15559 -0.70632,2.1677 -1.07227,3.29688 6.85714,2.01268 16.10786,3.86085 28.25391,5.50586 -2.30154,7.0776 -4.71116,14.12425 -7.14258,21.16406 29.02934,-15.43401 58.78223,-29.5583 89.45313,-41.25195 0.61713,-0.23529 1.21311,-0.45333 1.82422,-0.6836 -2.85054,-7.81042 -6.84932,-15.17413 -10.2129,-22.78515 -11.43307,-25.87057 13.43775,-39.70137 24.97461,-13.87696 3.99836,8.95004 8.80454,17.58314 11.9961,26.85157 0.0732,0.21252 0.14224,0.42598 0.21484,0.63867 9.71788,-2.91058 18.74631,-5.13157 27.49024,-6.90625 -0.41883,-2.03109 -0.6798,-3.35884 -1.13477,-5.54688 -3.52778,-16.96565 -6.37349,-34.06471 -9.56055,-51.09765 -5.20204,-27.80178 22.89274,-33.05539 28.08594,-5.25196 3.12246,16.71708 5.92541,33.49812 9.36719,50.15235 0.56333,2.72589 1.00615,4.83234 1.52539,7.33203 16.41549,-1.86714 33.41124,-2.80971 53.26172,-4.13086 0.14688,-20.79163 -0.33302,-41.76249 -1.54297,-64.66406 -1.26636,-23.96912 -2.71887,-43.94492 -4.35742,-62.27539 -11.28511,-39.65358 -20.46322,-81.6541 -29.03125,-117.03516 -0.42765,-1.76593 -0.70563,-3.43514 -0.86133,-5.01367 z m 133.28711,105.64843 c 3.32204,27.27179 6.1838,50.65451 8.63671,77.54102 6.10028,21.19266 12.81354,41.65685 20.41211,59.89844 0.72923,1.75062 1.48181,3.49852 2.23243,5.24609 L 471.125,265.5332 Z m 14.51953,174.25977 c 0.1145,4.2877 0.21068,8.54543 0.27343,12.75781 l 2.64454,-7.11328 c -0.99231,-1.8697 -1.96778,-3.75082 -2.91797,-5.64453 z m -28.78125,64.13477 c -17.32338,1.16249 -32.35801,2.02655 -46.77149,3.57617 9.97113,46.52864 6.05554,23.34944 9.89844,45.8164 l 28.01367,1.17383 7.42969,-19.97851 c 0.59681,-10.43736 1.0923,-20.61641 1.42969,-30.58789 z m -75.26563,7.88476 c -8.12727,1.62812 -16.49722,3.66249 -25.4707,6.32227 2.45473,10.81111 4.30014,21.73913 5.66601,32.74414 L 326.625,500.5 c -4.22075,-10.9976 -5.79618,-18.51373 -10.17383,-40.32422 z m -52.42383,15.50195 c -0.92768,0.35236 -1.84269,0.69382 -2.78515,1.0586 -15.03735,5.8202 -29.83907,12.25661 -44.43164,19.1582 l 50.91211,2.13477 c -0.93196,-7.62624 -2.1046,-14.92733 -3.69532,-22.35157 z"
       transform="scale(0.26458333)"
       inkscape:transform-center-y="-4.735379"
       inkscape:transform-center-x="-0.73791142"
       style="fill:#ff0000;stroke-width:0.999999"
       id="path58" />
    <path
       d="m 220.29883,494.26562 c -22.90953,10.69271 -45.30481,22.55165 -67.28516,35.02344 29.0413,37.77555 57.32049,76.16617 85.51758,118.11914 -0.43368,-30.07323 -4.03948,-60.14563 -14.35937,-88.56445 -9.65424,-26.58565 15.97738,-38.44375 25.9414,-11.97266 12.85981,34.16421 16.94161,70.53592 17.01758,106.83203 0.0212,10.11142 0.0451,21.84481 -1.47852,33.29493 0.30757,0.46224 0.60896,0.9273 0.91407,1.39062 4.66885,-0.6775 9.34249,-1.35744 14.03125,-2.04492 -1.9366,-8.29422 -0.6963,-14.23334 7.30273,-15.14648 -0.63482,-5.63341 -5.66101,-6.7701 -18.43164,0.0215 1.33138,-48.93215 4.36803,-98.35231 0.6875,-147.27344 z m 67.60156,176.93165 c 0.38598,3.42515 -0.85881,8.52014 -2.97656,14.51171 8.51028,-1.25181 17.06551,-2.52335 25.65039,-3.81054 l 26.72851,-117.98242 -37.47265,-22.30664 c 0.81839,23.74969 0.31473,47.58989 -0.18946,71.10351 -0.42373,19.76349 -1.07242,39.52247 -1.60937,59.2832 -4.18721,-0.86843 -7.51371,-1.09759 -10.13086,-0.79882 z M 115.42383,551.76562 c -11.75439,7.47088 -23.302877,15.27148 -34.583986,23.42969 l -15.56836,13.64649 14.060547,32.74804 c 7.420886,2.9702 14.378367,5.58879 20.605469,7.84961 4.87391,-34.1363 9.4824,-56.21498 15.48633,-77.67383 z m 26.77148,10.38868 c -5.44347,21.72279 -10.739,49.47609 -14.79297,77.08203 31.67998,12.79379 63.63775,24.88216 95.66797,36.7832 -0.55086,-1.09878 -1.03163,-1.9805 -1.43359,-2.58789 -25.76451,-38.93219 -52.26638,-75.48603 -79.44141,-111.27734 z m -47.429685,95.38086 0.894531,2.08593 c 0.08006,-0.57234 0.15968,-1.1005 0.240235,-1.66797 -0.391999,-0.14391 -0.735361,-0.27095 -1.134766,-0.41796 z m 28.816405,10.9414 c -1.45569,12.82776 -2.5366,25.08754 -3.11133,36.06836 -0.0682,1.30357 -0.21849,2.66463 -0.39453,4.04883 26.50448,-3.48862 53.04453,-7.05598 79.76758,-10.75391 -25.51804,-9.53876 -50.97449,-19.23628 -76.26172,-29.36328 z m 125.30859,57.34375 c -2.79415,2.93642 -5.82877,5.65351 -8.98632,8.25781 l 14.04492,-1.2871 c -1.75065,-2.23149 -3.43242,-4.57221 -5.0586,-6.97071 z m -44,0.19727 c -25.48782,3.51895 -50.90511,6.92581 -76.3125,10.27344 l 0.38086,0.88671 c 20.28743,7.712 62.18495,-6.12968 71.31836,-8.08593 1.4925,-1.07353 3.04464,-2.08302 4.61328,-3.07422 z"
       transform="scale(0.26458333)"
       inkscape:transform-center-y="-2.5943806"
       inkscape:transform-center-x="1.0713923"
       style="fill:#ff0000;stroke-width:0.999999"
       id="path60" />
    <path
       d="M 330.61133,227.92578 70.726562,424.76758 c 20.784057,26.17052 40.954328,51.45581 60.671878,76.64844 3.72374,-11.13542 7.75048,-23.1701 12.50976,-37.85547 -35.94703,-10.55106 -5.52354,-25.61721 25.34961,-39.7168 1.87528,-22.76806 4.27309,-46.27254 18.29883,-46.34766 8.92639,-0.0478 14.69775,8.99474 21.14648,16.08789 0.58517,0.28131 1.15031,0.63295 1.6875,1.08399 0.84268,0.70744 1.36022,1.44938 1.5879,2.2207 0.47235,0.42835 0.94916,0.84449 1.43554,1.23242 9.2463,7.37472 0.86383,9.36718 -9.96484,8.89453 -8.23652,5.16373 -21.24085,10.91369 -34.19141,16.82813 -2.27278,27.59424 -3.77869,54.10105 -24.27734,36.41992 -0.37286,1.15559 -0.70632,2.1677 -1.07227,3.29688 6.85714,2.01268 16.10786,3.86085 28.25391,5.50586 -2.30127,7.07679 -4.71073,14.12232 -7.13867,21.16211 29.02812,-15.43321 58.77968,-29.55687 89.44922,-41.25 0.61713,-0.23529 1.21311,-0.45333 1.82422,-0.6836 -2.85054,-7.81042 -6.84932,-15.17413 -10.2129,-22.78515 -11.43307,-25.87057 13.43775,-39.70137 24.97461,-13.87696 3.99836,8.95004 8.80454,17.58314 11.9961,26.85157 0.0734,0.21297 0.14014,0.42748 0.21289,0.64062 9.71836,-2.91079 18.74792,-5.13136 27.49219,-6.90625 -0.41896,-2.03172 -0.67964,-3.36005 -1.13477,-5.54883 -3.52778,-16.96565 -6.37349,-34.06471 -9.56055,-51.09765 -5.20204,-27.80178 22.89274,-33.05539 28.08594,-5.25196 3.12246,16.71708 5.92541,33.49812 9.36719,50.15235 0.56333,2.72589 1.00615,4.83234 1.52539,7.33203 16.41535,-1.86739 33.41124,-2.80977 53.26172,-4.13086 0.14688,-20.79163 -0.33302,-41.76249 -1.54297,-64.66406 -1.26721,-23.98526 -2.71703,-43.9701 -4.35547,-62.26954 -3.45277,-12.13202 -6.71462,-24.47072 -9.81445,-36.78711 z m 83.50781,58.16797 c 0.16208,1.7094 0.31203,3.52323 0.4707,5.25977 6.1067,21.22276 12.82884,41.71662 20.4375,59.98242 8.42336,20.2216 18.16255,40.36578 31.78907,57.51758 6.77794,8.53143 14.25136,16.22314 22.53711,21.91796 18.31644,-17.88682 36.19515,-36.20468 53.75195,-54.83203 z m 6.37695,102.05664 c 0.35004,13.12598 0.46303,25.85082 0.33985,38.53125 6.23643,4.84892 6.11495,13.13831 -0.35156,18.80664 -0.43066,15.95049 -1.19631,32.14892 -2.2793,49.35938 16.40848,-13.02582 32.05872,-27.04468 47.36523,-41.33594 1.19655,-1.11718 2.37982,-2.2479 3.57227,-3.36914 -10.10868,-7.56113 -19.20163,-17.06114 -27.38672,-27.56641 -8.28606,-10.63487 -15.18028,-22.3089 -21.25977,-34.42578 z m 146.32618,4.30859 c -0.95782,1.01986 -1.92315,2.03272 -2.88282,3.05079 1.06598,1.58719 1.94401,3.49632 2.56446,5.77929 8.39614,30.89447 8.60609,14.58744 -5.13672,48.65625 -10.19702,5.7106 -19.01333,15.54279 -30.5918,17.13281 -12.61087,1.73184 -24.21895,0.52848 -34.92187,-2.88085 -3.31764,3.15882 -6.6477,6.30535 -9.9961,9.43359 -7.97537,7.45096 -41.95455,39.64067 -72.83398,60.58789 -2.58159,8.38368 -7.59381,21.23283 -15.49219,19.48633 -3.50618,-0.7753 -6.38017,-2.83524 -9.02344,-5.36524 -4.66355,2.057 -8.99902,3.49385 -12.83398,4.08008 -10.98304,1.67891 -21.15474,-6.79942 -31.73242,-10.19922 -21.22379,-51.51424 -19.75718,-43.51502 -27.49024,-82.04297 -8.12594,1.62758 -16.49374,3.65951 -25.4707,6.32032 10.83374,47.66742 9.70169,97.64076 8.66015,146.21484 -0.42371,19.76349 -1.07242,39.52247 -1.60937,59.2832 -4.18721,-0.86843 -7.51371,-1.09759 -10.13086,-0.79882 0.38598,3.42515 -0.85881,8.52014 -2.97656,14.51171 57.82514,-8.50577 117.25328,-17.79277 179.82617,-28.29882 45.07942,-7.5689 90.25151,-14.93213 135.27734,-23.00977 l 6.94727,-22.92578 c 5.48335,-67.87074 11.06538,-123.97267 2.59766,-189.23828 z M 287.90039,671.19727 c -0.63482,-5.63341 -5.66101,-6.77014 -18.43164,0.0215 1.33894,-49.21009 4.40939,-98.91415 0.63086,-148.10742 -1.37002,-17.83645 -2.836,-32.37656 -6.06641,-47.43555 -0.92957,0.35306 -1.8466,0.69501 -2.79101,1.06055 -37.39551,14.47391 -73.33135,32.74994 -108.22852,52.55078 29.04161,37.77595 57.32019,76.16768 85.51758,118.12109 -0.43368,-30.07323 -4.0395,-60.14563 -14.35937,-88.56445 -9.65424,-26.58565 15.97738,-38.44375 25.9414,-11.97266 12.85981,34.16421 16.94161,70.53594 17.01758,106.83203 0.0212,10.11142 0.0451,21.84481 -1.47852,33.29493 0.30757,0.46224 0.60896,0.9273 0.91407,1.39062 4.66885,-0.6775 9.34249,-1.35744 14.03125,-2.04492 -1.9366,-8.29422 -0.6963,-14.23334 7.30273,-15.14648 z M 545.03125,415.31445 c -8.26935,8.5463 -16.61822,17.01385 -25.05469,25.39649 4.33807,-0.0734 8.84328,-0.72578 13.53321,-2.07422 5.37169,-1.54447 7.70211,-8.10298 11.55273,-12.1543 -0.19071,-8.50395 1.14698,-9.99482 -0.0312,-11.16797 z m -497.066406,26.69336 -32.275391,24.44531 33.539063,96.625 C 69.940615,547.03883 91.955646,532.56758 110.56445,521.17188 90.049742,494.91696 69.188596,468.72227 47.964844,442.00781 Z m 590.546876,0.38672 c 1.58583,18.13639 2.60647,36.26919 3.26367,54.24219 l 13.00391,-42.91211 z m -246.79492,9.9043 c -17.34004,1.16362 -32.35768,2.02261 -46.77149,3.57031 11.92845,55.66193 2.82496,4.78778 12.54102,61.19531 9.53358,17.27144 6.80757,18.00214 29.75976,0.87696 0.90882,-8.08133 1.89256,-16.15611 2.41016,-24.26953 0.91517,-14.3459 1.60741,-27.98308 2.06055,-41.37305 z M 115.43945,551.75586 C 96.014519,564.10134 77.149516,577.34919 59.134766,591.625 l 8.761718,25.24023 c 11.639024,4.96104 22.696132,9.18128 32.052735,12.57813 4.868931,-34.09035 9.486611,-56.21022 15.490231,-77.6875 z m 26.75586,10.39844 c -5.44347,21.72279 -10.739,49.47609 -14.79297,77.08203 31.67998,12.79379 63.63775,24.88216 95.66797,36.7832 -0.55086,-1.09878 -1.03163,-1.9805 -1.43359,-2.58789 -25.76451,-38.93219 -52.26638,-75.48603 -79.44141,-111.27734 z m -62.095701,89.87109 12.625,36.375 c 0.507982,-10.52524 1.821418,-20.82686 3.185547,-30.44531 -4.80528,-1.76453 -10.05394,-3.71515 -15.810547,-5.92969 z m 510.630861,13.05664 c -40.13082,7.02639 -80.36188,13.5509 -120.48047,20.36524 -52.51184,8.9194 -103.93988,17.07094 -154.75781,24.67968 70.19051,25.65977 128.40303,45.92855 200.75781,71.36524 2.23991,1.26228 20.64022,9.79118 33.43359,19.03906 z m -467.14844,3.39453 c -1.45569,12.82776 -2.5366,25.08754 -3.11133,36.06836 -0.0682,1.30402 -0.2167,2.6644 -0.39453,4.04883 26.50448,-3.48862 53.04453,-7.05598 79.76758,-10.75391 -25.51804,-9.53876 -50.97449,-19.23628 -76.26172,-29.36328 z m 125.30664,57.33985 c -9.05756,9.52504 -20.68601,16.70105 -30.59375,25.44921 -17.94927,4.83691 -76.38381,28.36496 -100.25586,10.07227 l 27.1875,78.33203 394.98047,-7.86523 0.28711,-0.94531 c -3.63359,-3.695 -7.3891,-7.51126 -11.84375,-10.60743 -8.0646,-5.60523 -17.39581,-9.12069 -26.09375,-13.68164 -83.67173,-29.02952 -120.80794,-41.61398 -202.375,-71.59961 2.68298,8.85199 2.61046,15.64349 -3.84375,17.67578 -8.199,2.5817 -15.84258,1.34444 -22.88086,-2.35351 -1.74933,1.12524 -3.65974,1.8097 -5.6875,1.88281 -5.14276,0.18542 -6.31126,-3.68387 -5.2168,-9.85937 -4.95367,-4.65477 -9.50917,-10.37144 -13.66406,-16.5 z m -43.99805,0.20117 c -25.92533,3.57935 -51.77789,7.04466 -77.62109,10.44726 19.54904,9.23137 63.61281,-5.36076 73.00781,-7.37304 1.4925,-1.07353 3.04464,-2.08302 4.61328,-3.07422 z"
       transform="scale(0.26458333)"
       inkscape:transform-center-y="-7.9686101"
       inkscape:transform-center-x="0.54711523"
       style="fill:#374837;stroke-width:0.999999"
       id="path62" />
  </g>
</svg>
